<svg version="1.1" id="Layer_1" xmlns="http://www.w3.org/2000/svg" xmlns:xlink="http://www.w3.org/1999/xlink" x="0px" y="0px"
	 width="100%" viewBox="0 0 631 142" enable-background="new 0 0 631 142" xml:space="preserve">
<path fill="#FFFDFD" opacity="1.000000" stroke="none" 
	d="
M1.000000,109.000000 
	C1.000000,85.312439 1.000000,61.624878 1.464973,37.525597 
	C6.816251,37.113873 11.702556,37.113873 16.841391,37.113873 
	C16.841391,42.064316 16.841391,46.778992 16.841391,51.357357 
	C15.367845,52.215263 13.982579,53.021774 12.280179,53.916725 
	C10.307181,56.779491 7.448192,59.460133 7.223470,62.345905 
	C6.577141,70.645767 6.995455,79.028549 6.995455,88.308159 
	C15.417870,88.308159 23.174185,88.722534 30.847946,88.107246 
	C33.982658,87.855896 36.938595,85.374878 40.292526,83.740814 
	C43.476311,80.157440 43.922119,76.400467 42.041851,72.405846 
	C39.183613,66.333534 33.739941,66.137451 27.638077,66.975578 
	C29.729893,59.999561 27.682762,55.341904 21.647680,52.406765 
	C20.838518,52.013229 20.012735,50.727615 19.977934,49.824902 
	C19.806850,45.387257 19.900238,40.939411 19.900238,36.468361 
	C28.405262,34.827415 36.735458,34.709255 43.989288,30.430670 
	C38.181583,30.546410 32.547005,31.436146 26.977892,32.631027 
	C21.517151,33.802654 16.405766,34.551571 13.822671,27.875986 
	C13.664845,27.468107 12.787063,27.338814 10.783977,26.383341 
	C12.189981,29.583055 13.029097,31.492676 14.130853,34.000000 
	C9.458521,34.000000 5.229260,34.000000 1.000000,34.000000 
	C1.000000,23.006916 1.000000,12.013833 1.000000,1.041091 
	C211.333344,1.041091 421.666687,1.041091 632.000000,1.041091 
	C632.000000,11.409016 632.000000,21.735849 631.562256,32.572403 
	C624.928101,36.115070 623.708679,29.065285 620.119446,26.816368 
	C619.767578,27.146284 619.415710,27.476202 619.063843,27.806120 
	C619.958069,29.705750 620.852356,31.605379 621.999451,34.042168 
	C615.442139,34.042168 609.431458,34.042168 603.403809,34.042168 
	C603.089050,30.806959 602.806335,27.900669 602.523560,24.994379 
	C601.981384,24.992563 601.439148,24.990746 600.896912,24.988930 
	C600.644653,27.959190 600.392395,30.929453 600.098083,34.394867 
	C593.878906,34.104378 588.042480,33.831764 581.970764,33.548161 
	C582.951050,31.111740 583.631958,29.419405 584.713562,26.731094 
	C580.992798,29.220547 578.548157,31.990314 575.724243,32.454845 
	C572.293030,33.019272 568.538757,31.661491 564.930603,31.094910 
	C562.140381,30.656775 559.370117,30.071491 556.569031,29.734200 
	C555.697998,29.629311 554.755066,30.121441 553.845093,30.340254 
	C553.837646,30.868374 553.830200,31.396494 553.822815,31.924612 
	C561.489075,33.261219 569.155396,34.597828 576.796936,35.930111 
	C576.796936,41.445896 576.796936,46.552128 576.796936,50.822334 
	C574.326782,52.634193 572.395508,54.050804 570.480103,55.482773 
	C570.495911,55.498131 570.461487,55.507561 570.202820,55.589695 
	C569.650391,56.121532 569.356628,56.571236 568.748535,57.300278 
	C568.105530,60.640274 567.776855,63.700935 567.443298,66.806755 
	C566.282043,66.806755 565.145447,66.825729 564.009583,66.803543 
	C558.595459,66.697807 554.696106,69.281303 553.336853,73.888802 
	C551.901550,78.753746 553.688293,83.697990 558.625732,86.031464 
	C561.816345,87.539368 565.570435,88.407280 569.103638,88.514008 
	C575.057983,88.693878 581.037415,88.041222 587.403198,87.765091 
	C588.406799,80.809120 589.385132,73.833282 589.507629,66.842461 
	C589.613892,60.772942 587.596680,55.370609 581.493713,52.447067 
	C580.754272,52.092846 579.881958,51.063015 579.858826,50.321690 
	C579.710876,45.587368 579.783386,40.846153 579.783386,36.120495 
	C585.717651,36.446434 590.879517,36.540504 595.990784,37.098679 
	C598.210388,37.341068 600.325684,38.538231 601.477173,38.944729 
	C609.269653,35.562691 617.075989,37.813877 624.772583,36.662270 
	C624.772583,42.174866 624.772583,46.796951 624.772583,51.357471 
	C623.272400,52.190094 621.853760,52.977440 620.126221,53.861187 
	C618.197083,56.560543 615.370300,59.078495 615.179810,61.782166 
	C614.576050,70.352837 614.956665,78.992867 614.956665,87.554565 
	C621.197205,88.083824 626.598633,88.541916 632.000000,89.000000 
	C632.000000,106.988304 632.000000,124.976601 632.000000,142.968842 
	C421.666656,142.972778 211.333328,142.972778 1.000000,142.972778 
	C1.000000,138.948151 1.000000,134.950745 1.404713,130.425842 
	C4.839403,129.112244 8.091212,128.782242 10.850767,127.440117 
	C15.798712,125.033653 17.668200,120.129082 16.124044,115.350754 
	C14.452846,110.179298 10.248970,107.700218 4.447758,108.477051 
	C3.295820,108.631317 2.149117,108.824677 1.000000,109.000000 
M607.075256,97.934074 
	C607.075256,97.934074 607.171143,97.882301 606.996033,97.151360 
	C605.327881,95.657341 603.659790,94.163315 602.347107,92.987663 
	C594.375916,94.032730 589.316650,98.107506 588.879150,105.918694 
	C588.475769,113.123276 589.054932,120.385635 589.321045,127.618118 
	C589.336975,128.052536 590.414062,128.447937 591.868896,129.026093 
	C595.182556,129.262131 598.500000,129.730896 601.809021,129.678040 
	C606.430298,129.604263 611.165039,129.689438 615.634338,128.713303 
	C622.015015,127.319687 625.283752,121.851013 624.080811,116.078316 
	C622.947754,110.641571 618.591003,107.928177 611.981201,108.524139 
	C611.368286,108.579414 610.746033,108.531517 610.641663,108.531517 
	C609.912720,105.107735 609.249390,101.992226 608.246826,98.319862 
	C607.847778,98.155968 607.448730,97.992065 607.075256,97.934074 
M298.755768,93.094345 
	C298.756195,86.474960 298.711182,79.855202 298.766937,73.236282 
	C298.868591,61.171410 299.029999,49.107037 300.078461,37.142624 
	C306.814453,37.142624 313.550446,37.142624 320.918457,37.142624 
	C319.053101,43.165680 324.282043,50.408398 315.213776,54.171383 
	C313.459656,57.828384 310.604156,61.364468 310.186554,65.168190 
	C309.380707,72.508904 309.951447,80.000725 309.951447,88.308258 
	C318.971466,88.308258 326.635040,88.819031 334.175659,88.078232 
	C337.599518,87.741867 340.779724,84.925621 344.674438,82.827370 
	C347.212494,79.162361 347.251221,75.386337 345.089355,71.566933 
	C342.017914,66.140556 336.807251,66.346550 331.240509,66.941277 
	C333.178741,60.218479 331.296082,55.498798 325.335968,52.489986 
	C324.486237,52.061012 323.544403,50.835194 323.506805,49.941910 
	C323.319885,45.501549 323.421509,41.049046 323.421509,36.523319 
	C331.859558,34.649712 340.341064,34.886547 347.640259,30.397589 
	C345.979370,29.829603 344.439880,29.945471 342.929871,30.222200 
	C339.011444,30.940302 335.094238,31.673923 331.198151,32.502914 
	C325.536194,33.707642 319.923218,34.941254 317.088318,27.744532 
	C316.974976,27.456791 316.265350,27.403919 314.637970,26.792183 
	C315.787750,29.693439 316.592712,31.724501 317.554749,34.151978 
	C311.218842,34.151978 305.299347,34.151978 299.261139,34.151978 
	C298.902679,30.914701 298.572906,27.936634 298.243164,24.958567 
	C297.659363,25.019608 297.075592,25.080648 296.491821,25.141689 
	C296.259308,28.131275 296.026794,31.120859 295.830353,33.646637 
	C289.604309,33.646637 283.879333,33.646637 277.865234,33.646637 
	C278.694336,31.205265 279.299927,29.422073 279.905487,27.638880 
	C279.533844,27.129026 279.162201,26.619173 278.790558,26.109318 
	C275.043732,35.150925 268.555359,32.586937 262.365204,31.361155 
	C261.227753,31.135912 260.052460,31.109245 258.900635,30.947815 
	C255.835495,30.518229 252.773651,30.065121 249.710495,29.621367 
	C249.590164,30.363384 249.469833,31.105402 249.349503,31.847420 
	C257.125397,33.220833 264.901306,34.594242 272.702087,35.972046 
	C272.702087,41.371365 272.702087,46.341152 272.702087,50.390209 
	C269.726990,52.876415 267.284302,54.917675 264.254730,57.404922 
	C263.837921,60.539585 263.421112,63.674248 262.981079,66.983566 
	C261.874268,66.927261 260.567169,66.821037 259.258789,66.800903 
	C252.652634,66.699249 248.374588,71.183258 248.788788,77.749374 
	C249.131699,83.185310 253.414551,87.660866 260.238586,88.090210 
	C267.458435,88.544449 274.749207,87.871117 282.676575,87.882668 
	C283.078003,85.265396 283.479401,82.648132 284.028473,79.219963 
	C284.085510,77.849182 284.142548,76.478401 284.897369,74.616005 
	C285.118225,65.527473 286.457947,55.982487 275.644775,51.670742 
	C275.644775,46.392124 275.644775,41.319218 275.644775,37.013954 
	C282.684082,37.013954 289.314178,37.013954 296.145782,37.931240 
	C296.078522,56.616886 296.011292,75.302528 295.175018,93.967361 
	C289.506927,94.276688 285.803375,97.899399 285.306274,102.818428 
	C284.468170,111.112160 285.050232,119.551865 285.151215,127.928787 
	C285.155121,128.254181 286.360901,128.565094 287.879578,129.030060 
	C293.500824,129.318665 299.163635,130.144180 304.729248,129.713654 
	C308.666565,129.409042 312.853668,128.037109 316.239502,125.996956 
	C320.387390,123.497627 321.130829,118.950432 319.283356,114.532654 
	C317.459198,110.170570 314.026886,107.820557 309.049072,108.329117 
	C307.822906,108.454391 306.591461,108.527542 305.970306,108.576622 
	C305.584076,105.406342 305.254974,102.704704 304.871124,99.331192 
	C302.835266,97.566261 300.799408,95.801331 298.755768,93.094345 
M486.025940,80.251625 
	C486.088806,79.205688 486.151642,78.159760 486.862671,76.670189 
	C487.031036,74.520096 487.448395,72.355286 487.322357,70.222595 
	C486.902466,63.119049 486.850464,55.777775 478.817139,52.197327 
	C478.212585,51.927868 477.554810,50.967995 477.539825,50.314865 
	C477.431152,45.584267 477.481506,40.850018 477.481506,36.104725 
	C484.811829,36.548809 491.239868,36.938229 497.909546,37.342289 
	C497.909546,56.154861 497.909546,74.729370 497.909546,93.676605 
	C490.903290,94.383430 487.177246,98.935768 486.760223,105.468262 
	C486.286957,112.882408 486.912018,120.369301 487.180573,127.820198 
	C487.193695,128.185364 488.365692,128.508774 489.868317,129.024857 
	C495.483337,129.316010 501.148560,130.186584 506.696716,129.705902 
	C510.774506,129.352615 515.080872,127.859398 518.590576,125.729340 
	C522.549072,123.326874 523.082520,118.803566 521.414917,114.624092 
	C519.667297,110.243912 516.226257,107.866692 511.255249,108.321571 
	C510.006531,108.435837 508.758514,108.558014 508.279053,108.603546 
	C507.578339,105.069801 506.966980,101.986656 506.099365,98.233322 
	C500.453918,95.181061 500.777222,89.974480 500.845215,84.601242 
	C501.022095,70.626282 500.896240,56.647583 500.915192,42.670406 
	C500.917572,40.923103 501.064789,39.175999 501.151611,37.281731 
	C508.595154,37.281731 515.462402,37.281731 522.945862,37.281731 
	C521.097961,43.188862 526.346313,50.441441 517.246887,54.185524 
	C515.482971,58.006927 512.648621,61.704525 512.189209,65.676796 
	C511.361237,72.836189 511.955200,80.160027 511.955200,88.312263 
	C520.992737,88.312263 528.644104,88.818687 536.174500,88.084648 
	C539.603638,87.750389 542.793884,84.964333 546.699036,82.877998 
	C549.143555,79.418991 549.348938,75.829582 547.425537,72.057480 
	C544.497681,66.315475 539.181274,66.261452 533.470520,66.909393 
	C535.101440,59.904324 533.110535,55.192574 527.077515,52.300797 
	C526.291931,51.924248 525.597107,50.517948 525.561096,49.562195 
	C525.399231,45.269985 525.490601,40.968227 525.490601,36.768806 
	C533.958313,35.070004 541.974121,33.461861 549.989990,31.853714 
	C549.861694,31.148592 549.733459,30.443468 549.605164,29.738344 
	C548.250427,29.849779 546.878174,29.859732 545.544067,30.090433 
	C540.139587,31.025009 534.689697,31.791693 529.368103,33.080647 
	C525.224182,34.084339 522.285034,33.398952 520.380249,29.342119 
	C519.942688,28.410250 518.814026,27.802872 518.003357,27.046160 
	C517.637634,27.324284 517.271851,27.602407 516.906067,27.880531 
	C517.785400,29.819262 518.664673,31.757994 519.744873,34.139633 
	C513.287170,34.139633 507.359222,34.139633 501.257416,34.139633 
	C500.952057,30.925274 500.670502,27.961359 500.388916,24.997446 
	C499.854401,24.985689 499.319855,24.973932 498.785309,24.962175 
	C498.418732,28.005310 498.052124,31.048443 497.648682,34.397602 
	C491.607758,34.119400 485.875580,33.855419 479.960754,33.583023 
	C480.743744,31.128754 481.311066,29.350452 481.878387,27.572153 
	C481.428986,26.899815 480.979553,26.227476 480.530151,25.555138 
	C477.615540,35.739738 471.042358,32.244709 465.226746,31.554758 
	C464.403900,31.457142 463.598206,31.176069 462.775421,31.123655 
	C459.154114,30.892958 455.529480,30.714975 451.262878,30.479219 
	C449.505737,30.410563 447.705444,30.063972 446.000000,30.328588 
	C441.900238,30.964720 437.849579,31.912012 433.770477,32.688221 
	C428.801117,33.633842 423.515289,35.947235 419.826080,29.762272 
	C420.066376,31.418493 420.306671,33.074715 420.514771,34.508892 
	C414.011444,34.508892 407.746735,34.508892 401.290070,34.508892 
	C401.091888,31.155285 400.920227,28.250330 400.748596,25.345375 
	C400.316986,25.351698 399.885376,25.358021 399.453796,25.364344 
	C399.303284,28.216593 399.152802,31.068844 399.013336,33.712112 
	C392.761871,33.712112 386.908173,33.712112 380.654572,33.712112 
	C381.596039,31.263639 382.282471,29.478502 382.968872,27.693367 
	C382.616241,27.161242 382.263611,26.629116 381.910950,26.096991 
	C377.827118,35.826122 370.896118,32.305389 364.489227,31.243862 
	C361.537262,30.754766 358.589874,30.219477 355.622009,29.855228 
	C354.684570,29.740173 353.687378,30.112041 352.717529,30.261066 
	C352.679810,30.799168 352.642059,31.337271 352.604340,31.875372 
	C360.279663,33.197517 367.955017,34.519661 375.730652,35.859081 
	C375.730652,41.231606 375.730652,46.363655 375.730652,50.772415 
	C373.099304,52.693531 370.884216,54.310757 368.086304,56.316391 
	C367.297729,59.708302 366.509125,63.100212 365.626312,66.897514 
	C365.689911,66.897514 364.884888,66.926964 364.082520,66.892899 
	C357.244080,66.602524 353.068451,69.242546 351.998749,74.547104 
	C350.803589,80.473679 353.724121,86.470428 360.234619,87.208427 
	C369.052185,88.207947 378.099274,87.182976 387.136627,86.153694 
	C387.045868,84.118004 386.955078,82.082306 387.031036,79.323563 
	C387.077515,78.583160 387.123993,77.842766 387.859650,76.583168 
	C387.971954,73.759453 388.453613,70.891510 388.121887,68.120949 
	C387.362213,61.775734 387.111664,55.005142 379.556946,52.205360 
	C378.979004,51.991173 378.339508,51.000980 378.325348,50.358360 
	C378.221252,45.628811 378.269104,40.895924 378.269104,36.136456 
	C385.648376,36.601967 392.210938,37.015961 399.191620,37.456329 
	C399.191620,55.753643 399.234253,73.872864 399.076752,91.990341 
	C399.068085,92.988480 397.571350,94.526848 396.470673,94.874382 
	C388.016754,97.543686 383.565308,111.613686 388.786011,120.163170 
	C388.550293,122.984482 388.314575,125.805794 388.053131,128.935120 
	C394.917999,129.277588 401.193329,129.950806 407.442505,129.761658 
	C410.956146,129.655304 414.718719,128.698242 417.849182,127.103645 
	C422.722076,124.621483 424.293793,119.519051 422.543915,114.784828 
	C420.872009,110.261429 416.752228,107.902893 411.429993,108.430740 
	C410.494659,108.523514 409.562347,108.647072 408.379272,108.785614 
	C408.733215,103.978981 410.430939,98.969917 403.904022,96.171448 
	C403.218872,94.078300 401.974518,91.994057 401.941010,89.890526 
	C401.750244,77.921669 401.848480,65.948212 401.848480,53.976315 
	C401.848480,48.537399 401.848480,43.098480 401.848480,37.058872 
	C408.985291,37.058872 415.592133,37.021336 422.196838,37.122593 
	C422.793396,37.131737 423.376221,38.035728 423.970917,39.351494 
	C423.966583,42.392815 423.962250,45.434139 423.811890,49.268909 
	C423.818542,50.076534 423.825165,50.884155 423.216675,51.841923 
	C422.467072,52.177715 421.717468,52.513512 420.341461,52.904213 
	C419.859924,53.279392 419.378387,53.654572 418.245422,54.232121 
	C416.707672,56.911121 414.039276,59.510513 413.843994,62.284058 
	C413.256409,70.629074 413.632141,79.041924 413.632141,88.309204 
	C422.009399,88.309204 429.663666,88.818558 437.195526,88.079842 
	C440.615692,87.744400 443.793335,84.936226 447.651642,82.877975 
	C448.432220,81.551605 449.212830,80.225243 450.610413,79.223106 
	C453.032532,85.359322 457.864685,88.273552 464.140442,88.384521 
	C471.087006,88.507355 478.045074,87.981438 485.642090,87.819229 
	C485.725159,85.554993 485.808228,83.290749 486.025940,80.251625 
M164.143204,55.833080 
	C163.904037,56.184734 163.664871,56.536388 162.875565,57.408707 
	C162.442459,60.450016 162.009369,63.491322 161.539993,66.787521 
	C160.350525,66.787521 158.893814,66.846390 157.443283,66.776756 
	C152.616959,66.545052 149.561554,69.056931 147.890610,73.267967 
	C146.092010,77.800697 147.165054,82.019073 151.082291,84.787735 
	C153.544678,86.528107 156.737244,88.026596 159.667648,88.156372 
	C166.761429,88.470543 173.893509,87.919609 181.787094,87.840851 
	C187.783401,77.403267 183.595383,57.477436 174.190414,51.296055 
	C174.190414,46.283802 174.190414,41.338482 174.190414,36.106716 
	C181.142822,36.531239 187.830490,36.939594 194.683441,37.358044 
	C194.683441,56.307507 194.683441,74.879250 194.683441,93.405258 
	C186.655899,95.513382 183.143158,99.567734 182.904282,107.907463 
	C182.728592,114.041176 183.160416,120.201691 183.579926,126.332588 
	C183.640427,127.217010 185.150742,128.002228 186.857437,129.029327 
	C191.843582,129.323151 196.858887,130.078659 201.806747,129.766220 
	C205.839294,129.511566 210.091232,128.600677 213.702927,126.856499 
	C218.219696,124.675240 219.612411,119.819511 218.153763,115.333275 
	C216.580215,110.493744 212.704956,107.963348 207.423004,108.349785 
	C206.356644,108.427811 205.295609,108.578476 205.166748,108.592674 
	C204.050674,104.643265 203.106033,101.300514 201.866669,97.306770 
	C197.409531,95.180573 197.056534,91.406822 197.149948,86.997841 
	C197.393234,75.515427 197.231781,64.024437 197.231781,52.536869 
	C197.231781,47.591583 197.231781,42.646301 197.231781,37.278297 
	C204.840485,37.278297 211.859039,37.278297 219.013123,37.278297 
	C219.013123,42.212933 219.013123,46.844242 219.013123,51.311077 
	C217.433762,52.229664 216.036118,53.042564 213.998642,54.021584 
	C212.303375,56.981960 209.405106,59.841122 209.145874,62.922318 
	C208.458893,71.087608 208.912842,79.348892 208.912842,88.633141 
	C216.559555,88.633141 223.259277,89.192917 229.805191,88.431084 
	C233.982407,87.944923 237.931915,85.502312 242.622589,83.602417 
	C245.486710,80.199234 245.960846,76.460503 244.097473,72.451469 
	C241.255203,66.336266 235.812393,66.192024 230.167999,66.888908 
	C230.868118,57.978504 230.851898,57.999825 223.331558,52.276936 
	C222.663620,51.768639 222.016449,50.754314 221.993423,49.956707 
	C221.864868,45.507099 221.931641,41.051846 221.931641,36.537106 
	C230.299377,34.626621 238.765213,34.865208 246.049667,30.418941 
	C244.396896,29.842709 242.883759,29.984873 241.395004,30.259378 
	C237.150436,31.042013 232.898254,31.797750 228.681717,32.714272 
	C223.406006,33.861027 218.450180,34.429443 215.953964,28.028393 
	C215.789078,27.605602 214.926636,27.454836 213.062500,26.493984 
	C214.334702,29.639242 215.126511,31.596849 216.119034,34.050697 
	C209.657303,34.050697 203.640244,34.050697 197.615234,34.050697 
	C197.266830,30.799295 196.960724,27.942469 196.654617,25.085644 
	C196.135345,25.115740 195.616074,25.145838 195.096802,25.175934 
	C194.962189,28.043774 194.827576,30.911612 194.701309,33.601593 
	C188.494278,33.601593 182.648972,33.601593 176.627365,33.601593 
	C177.294601,31.137987 177.777969,29.353258 178.567200,26.439255 
	C170.703888,32.955921 170.704376,32.952946 160.211960,31.217674 
	C157.097092,30.702526 153.987885,30.132267 150.855896,29.754715 
	C149.961670,29.646921 148.996567,30.127224 148.063965,30.337852 
	C148.049500,30.856735 148.035019,31.375620 148.020554,31.894505 
	C155.682312,33.230400 163.344070,34.566296 171.020294,35.904716 
	C171.020294,41.448322 171.020294,46.558323 171.020294,50.791489 
	C168.538437,52.661343 166.621216,54.105797 164.728668,55.613625 
	C164.728668,55.613625 164.767059,55.669754 164.143204,55.833080 
M113.157761,54.245140 
	C111.409767,57.897861 108.563942,61.430405 108.148117,65.228958 
	C107.345222,72.563530 107.913788,80.048233 107.913788,88.486588 
	C116.502899,88.486588 123.698639,89.088142 130.722717,88.250420 
	C134.642929,87.782883 138.277847,84.923470 142.678268,82.670357 
	C146.994492,73.379089 142.121918,66.159355 132.041794,66.895828 
	C131.053040,66.968071 130.057434,66.946159 129.158493,66.350418 
	C129.179398,65.937439 129.200302,65.524467 129.626038,64.486023 
	C130.262894,57.189541 125.854324,51.804241 118.328262,51.694382 
	C117.538231,52.066872 116.748192,52.439365 115.304832,52.877697 
	C114.803764,53.271606 114.302689,53.665516 113.157761,54.245140 
M62.215527,57.387913 
	C61.794235,60.527863 61.372944,63.667812 60.928074,66.983482 
	C59.833992,66.927887 58.524563,66.822060 57.213791,66.801361 
	C50.580357,66.696632 46.330246,71.158379 46.735413,77.776176 
	C47.066643,83.186317 51.397514,87.680939 58.228325,88.097359 
	C65.462975,88.538406 72.766136,87.855583 80.804543,87.831078 
	C81.425850,86.501732 82.498436,85.202240 82.588676,83.837769 
	C82.939659,78.531181 83.016747,73.204727 83.124817,67.884232 
	C83.276360,60.422546 80.754860,54.518848 73.470810,51.729721 
	C73.470810,46.431919 73.470810,41.329762 73.470810,36.098110 
	C80.487686,36.575893 87.187347,37.032078 94.120300,37.504147 
	C94.120300,55.577969 94.189217,73.368080 93.976700,91.154823 
	C93.961319,92.442169 92.011452,93.831818 90.761688,94.951416 
	C88.552269,96.930740 85.095917,98.285187 84.093224,100.702477 
	C80.928078,108.333000 80.794060,116.332344 83.530220,124.857765 
	C83.382660,126.164703 83.235100,127.471642 83.070381,128.930573 
	C89.747070,129.280975 95.718758,129.894470 101.677971,129.790848 
	C105.074577,129.731781 108.686295,129.039078 111.783806,127.680321 
	C117.084534,125.355080 119.130333,120.328056 117.600204,115.357048 
	C116.068275,110.380180 111.756943,107.866768 105.869835,108.515854 
	C105.096657,108.601105 104.322174,108.674522 103.496071,108.758743 
	C104.090248,99.594452 103.755241,98.816376 97.761284,95.047729 
	C97.429230,93.305405 96.817383,91.564430 96.808891,89.820534 
	C96.733574,74.340103 96.765083,58.859158 96.765068,43.378361 
	C96.765068,41.446228 96.765060,39.514099 96.765060,36.982479 
	C113.864693,37.970177 130.032806,36.456306 145.664597,30.813667 
	C144.752655,30.121454 143.822983,29.755468 142.979446,29.898285 
	C137.247528,30.868742 131.444916,31.612812 125.844498,33.103718 
	C121.937630,34.143776 118.863686,34.389774 116.513123,30.521076 
	C116.200844,30.007099 115.065857,29.992979 113.859352,29.599964 
	C114.633080,31.679630 115.171249,33.126160 115.699074,34.544861 
	C109.080772,34.544861 102.803108,34.544861 95.944351,34.544861 
	C95.944351,31.165857 95.944351,28.209852 95.944351,25.253845 
	C95.492500,25.225767 95.040642,25.197689 94.588791,25.169613 
	C94.317329,28.107388 94.045868,31.045162 93.803223,33.671173 
	C87.639641,33.671173 81.782608,33.671173 75.658615,33.671173 
	C76.549988,31.223343 77.197456,29.445303 77.844925,27.667261 
	C76.347870,27.487329 75.592957,27.717012 75.395157,28.183117 
	C73.346657,33.010239 69.675842,33.478870 65.202156,32.240799 
	C63.451771,31.756393 61.613457,31.569672 59.805378,31.317860 
	C55.750660,30.753157 51.689785,30.232618 47.631420,29.694098 
	C47.535961,30.408913 47.440498,31.123726 47.345039,31.838539 
	C55.026741,33.164974 62.708447,34.491413 70.558060,35.846840 
	C70.558060,41.222080 70.558060,46.452095 70.558060,50.340275 
	C67.432671,53.014042 65.125824,54.987549 62.215527,57.387913 
z"/>
<path fill="#E63B60" opacity="1.000000" stroke="none" 
	d="
M620.435120,53.764778 
	C621.853760,52.977440 623.272400,52.190094 624.772583,51.357471 
	C624.772583,46.796951 624.772583,42.174866 624.772583,36.662270 
	C617.075989,37.813877 609.269653,35.562691 601.477173,38.944729 
	C600.325684,38.538231 598.210388,37.341068 595.990784,37.098679 
	C590.879517,36.540504 585.717651,36.446434 579.783386,36.120495 
	C579.783386,40.846153 579.710876,45.587368 579.858826,50.321690 
	C579.881958,51.063015 580.754272,52.092846 581.493713,52.447067 
	C587.596680,55.370609 589.613892,60.772942 589.507629,66.842461 
	C589.385132,73.833282 588.406799,80.809120 587.400879,87.329102 
	C587.332703,81.421722 588.035278,75.966919 587.892151,70.534386 
	C587.743591,64.896393 585.954529,59.748104 581.542908,57.272034 
	C580.998108,60.306271 580.648865,63.398720 579.660034,66.270943 
	C579.539612,66.620583 575.442627,66.454697 574.107056,65.383072 
	C568.653198,61.007046 575.782471,58.941429 576.632019,55.467407 
	C574.323669,55.467407 572.393921,55.467407 570.464233,55.467407 
	C572.395508,54.050804 574.326782,52.634193 576.796936,50.822334 
	C576.796936,46.552128 576.796936,41.445896 576.796936,35.930111 
	C569.155396,34.597828 561.489075,33.261219 553.822815,31.924612 
	C553.830200,31.396494 553.837646,30.868374 553.845093,30.340254 
	C554.755066,30.121441 555.697998,29.629311 556.569031,29.734200 
	C559.370117,30.071491 562.140381,30.656775 564.930603,31.094910 
	C568.538757,31.661491 572.293030,33.019272 575.724243,32.454845 
	C578.548157,31.990314 580.992798,29.220547 584.713562,26.731094 
	C583.631958,29.419405 582.951050,31.111740 581.970764,33.548161 
	C588.042480,33.831764 593.878906,34.104378 600.098083,34.394867 
	C600.392395,30.929453 600.644653,27.959190 600.896912,24.988930 
	C601.439148,24.990746 601.981384,24.992563 602.523560,24.994379 
	C602.806335,27.900669 603.089050,30.806959 603.403809,34.042168 
	C609.431458,34.042168 615.442139,34.042168 621.999451,34.042168 
	C620.852356,31.605379 619.958069,29.705750 619.063843,27.806120 
	C619.415710,27.476202 619.767578,27.146284 620.119446,26.816368 
	C623.708679,29.065285 624.928101,36.115070 631.562256,33.041061 
	C632.000000,33.750000 632.000000,34.500000 631.559570,35.576385 
	C628.696533,35.731979 627.521973,36.637684 627.679749,39.284344 
	C627.864868,42.389824 627.871216,45.524071 627.679871,48.628880 
	C627.480164,51.869682 629.025330,53.060390 632.000000,53.000000 
	C632.000000,54.066669 632.000000,55.133339 631.663513,56.570827 
	C630.366272,56.807716 629.405518,56.673786 627.507629,56.409225 
	C628.643677,57.871151 629.496338,58.468147 629.553345,59.133327 
	C629.742065,61.335129 629.643799,63.561520 629.655640,65.778473 
	C627.563293,65.789116 624.337769,66.609596 623.635437,65.626839 
	C622.487427,64.020538 621.923828,60.282021 622.971741,59.123169 
	C627.109192,54.547714 624.341492,54.080467 620.435120,53.764778 
z"/>
<path fill="#EF415E" opacity="1.000000" stroke="none" 
	d="
M620.126221,53.861183 
	C624.341492,54.080467 627.109192,54.547714 622.971741,59.123169 
	C621.923828,60.282021 622.487427,64.020538 623.635437,65.626839 
	C624.337769,66.609596 627.563293,65.789116 629.655640,65.778473 
	C629.643799,63.561520 629.742065,61.335129 629.553345,59.133327 
	C629.496338,58.468147 628.643677,57.871151 627.507629,56.409225 
	C629.405518,56.673786 630.366272,56.807716 631.663513,56.970825 
	C632.000000,67.354225 632.000000,77.708458 632.000000,88.531342 
	C626.598633,88.541916 621.197205,88.083824 614.956665,87.554565 
	C614.956665,78.992867 614.576050,70.352837 615.179810,61.782166 
	C615.370300,59.078495 618.197083,56.560543 620.126221,53.861183 
z"/>
<path fill="#E73E62" opacity="1.000000" stroke="none" 
	d="
M12.597314,53.828281 
	C13.982579,53.021774 15.367845,52.215263 16.841391,51.357357 
	C16.841391,46.778992 16.841391,42.064316 16.841391,37.113873 
	C11.702556,37.113873 6.816251,37.113873 1.464973,37.056938 
	C1.000000,36.250000 1.000000,35.500000 1.000000,34.375000 
	C5.229260,34.000000 9.458521,34.000000 14.130853,34.000000 
	C13.029097,31.492676 12.189981,29.583055 10.783977,26.383341 
	C12.787063,27.338814 13.664845,27.468107 13.822671,27.875986 
	C16.405766,34.551571 21.517151,33.802654 26.977892,32.631027 
	C32.547005,31.436146 38.181583,30.546410 43.989288,30.430670 
	C36.735458,34.709255 28.405262,34.827415 19.900238,36.468361 
	C19.900238,40.939411 19.806850,45.387257 19.977934,49.824902 
	C20.012735,50.727615 20.838518,52.013229 21.647680,52.406765 
	C27.682762,55.341904 29.729893,59.999561 27.638077,66.975578 
	C33.739941,66.137451 39.183613,66.333534 42.041851,72.405846 
	C43.922119,76.400467 43.476311,80.157440 40.300182,83.297424 
	C40.026348,71.541458 39.466011,70.967499 28.555307,68.829956 
	C27.500895,68.623390 26.549284,66.491692 26.073839,65.077522 
	C25.451090,63.225227 25.349625,61.197666 25.023935,59.245495 
	C24.523458,59.334122 24.022982,59.422749 23.522505,59.511375 
	C23.357073,60.118221 23.297701,60.782238 23.006983,61.321552 
	C21.999716,63.190155 21.268507,65.490753 19.707920,66.661140 
	C18.900177,67.266922 15.334103,66.094994 15.165891,65.281372 
	C14.736601,63.204964 14.897214,60.522873 15.933080,58.722466 
	C18.526468,54.214970 15.809183,54.010231 12.597314,53.828281 
M21.567329,57.295460 
	C21.295355,57.010483 21.023380,56.725510 20.751410,56.440533 
	C20.633541,56.553295 20.406963,56.757858 20.413483,56.765579 
	C20.667248,57.066086 20.942276,57.348640 21.567329,57.295460 
z"/>
<path fill="#EF4360" opacity="1.000000" stroke="none" 
	d="
M1.000000,109.468536 
	C2.149117,108.824677 3.295820,108.631317 4.447758,108.477051 
	C10.248970,107.700218 14.452846,110.179298 16.124044,115.350754 
	C17.668200,120.129082 15.798712,125.033653 10.850767,127.440117 
	C8.091212,128.782242 4.839403,129.112244 1.404713,129.949173 
	C1.000000,123.312355 1.000000,116.624710 1.000000,109.468536 
z"/>
<path fill="#FFFDFD" opacity="1.000000" stroke="none" 
	d="
M632.000000,52.532394 
	C629.025330,53.060390 627.480164,51.869682 627.679871,48.628880 
	C627.871216,45.524071 627.864868,42.389824 627.679749,39.284344 
	C627.521973,36.637684 628.696533,35.731979 631.559570,35.951385 
	C632.000000,41.354931 632.000000,46.709858 632.000000,52.532394 
z"/>
<path fill="#FEFAFB" opacity="1.000000" stroke="none" 
	d="
M423.957916,48.475456 
	C423.962250,45.434139 423.966583,42.392815 424.372101,39.220627 
	C426.876495,37.961040 428.860138,36.350460 431.105194,35.793415 
	C438.005310,34.081333 445.005554,32.772617 452.242798,31.622356 
	C459.840820,33.268639 467.162933,34.599693 474.659271,35.962418 
	C474.659271,41.205425 474.659271,46.323433 474.659271,50.791092 
	C472.093872,52.667030 469.882599,54.283993 467.384613,56.103592 
	C466.335480,59.712860 465.573120,63.119499 464.701813,67.012802 
	C457.899536,65.017799 453.169708,68.628151 449.689911,74.916702 
	C446.831360,68.221275 444.379852,66.628174 437.532043,66.778168 
	C436.374359,66.803528 435.204529,66.274284 434.252075,65.675323 
	C438.092682,56.456612 427.958130,54.623051 425.846375,48.662308 
	C425.740967,48.364769 424.875793,48.316998 424.353485,48.202579 
	C424.246674,48.179176 424.091034,48.378693 423.957916,48.475456 
z"/>
<path fill="#E63C62" opacity="1.000000" stroke="none" 
	d="
M467.671356,55.900963 
	C469.882599,54.283993 472.093872,52.667030 474.659271,50.791092 
	C474.659271,46.323433 474.659271,41.205425 474.659271,35.962418 
	C467.162933,34.599693 459.840820,33.268639 452.210571,31.427612 
	C451.902435,30.917643 451.906036,30.517891 451.906036,30.517891 
	C455.529480,30.714975 459.154114,30.892958 462.775421,31.123655 
	C463.598206,31.176069 464.403900,31.457142 465.226746,31.554758 
	C471.042358,32.244709 477.615540,35.739738 480.530151,25.555138 
	C480.979553,26.227476 481.428986,26.899815 481.878387,27.572153 
	C481.311066,29.350452 480.743744,31.128754 479.960754,33.583023 
	C485.875580,33.855419 491.607758,34.119400 497.648682,34.397602 
	C498.052124,31.048443 498.418732,28.005310 498.785309,24.962175 
	C499.319855,24.973932 499.854401,24.985689 500.388916,24.997446 
	C500.670502,27.961359 500.952057,30.925274 501.257416,34.139633 
	C507.359222,34.139633 513.287170,34.139633 519.744873,34.139633 
	C518.664673,31.757994 517.785400,29.819262 516.906067,27.880531 
	C517.271851,27.602407 517.637634,27.324284 518.003357,27.046160 
	C518.814026,27.802872 519.942688,28.410250 520.380249,29.342119 
	C522.285034,33.398952 525.224182,34.084339 529.368103,33.080647 
	C534.689697,31.791693 540.139587,31.025009 545.544067,30.090433 
	C546.878174,29.859732 548.250427,29.849779 549.605164,29.738344 
	C549.733459,30.443468 549.861694,31.148592 549.989990,31.853714 
	C541.974121,33.461861 533.958313,35.070004 525.490601,36.768806 
	C525.490601,40.968227 525.399231,45.269985 525.561096,49.562195 
	C525.597107,50.517948 526.291931,51.924248 527.077515,52.300797 
	C533.110535,55.192574 535.101440,59.904324 533.470520,66.909393 
	C539.181274,66.261452 544.497681,66.315475 547.425537,72.057480 
	C549.348938,75.829582 549.143555,79.418991 546.369019,82.625290 
	C545.906372,71.801941 544.375122,69.935684 534.050476,69.070633 
	C530.672241,68.787582 530.983215,66.797447 531.005615,64.633186 
	C531.041809,61.140732 530.636353,57.907360 525.590454,55.646858 
	C526.726074,57.599133 527.485535,58.334541 527.551941,59.127899 
	C527.736389,61.335148 527.632996,63.566460 527.643311,65.788269 
	C525.421936,65.680206 522.876404,66.223358 521.052917,65.315804 
	C518.107544,63.849895 519.028992,61.250000 520.620972,58.989822 
	C521.498535,57.743874 522.341431,56.473518 523.850769,54.259613 
	C521.056580,54.123371 519.476562,54.046333 517.896484,53.969292 
	C526.346313,50.441441 521.097961,43.188862 522.945862,37.281731 
	C515.462402,37.281731 508.595154,37.281731 501.151611,37.281731 
	C501.064789,39.175999 500.917572,40.923103 500.915192,42.670406 
	C500.896240,56.647583 501.022095,70.626282 500.845215,84.601242 
	C500.777222,89.974480 500.453918,95.181061 505.833466,98.568024 
	C504.203247,98.679474 502.838959,98.456223 501.023254,98.159111 
	C501.750519,102.350990 505.989655,107.207115 499.389618,108.765694 
	C494.051422,110.026283 493.531982,105.233177 492.385468,101.051010 
	C490.718964,103.953339 489.299377,106.877838 489.116760,109.877632 
	C488.733002,116.181343 488.998871,122.524597 488.998047,128.851624 
	C488.365692,128.508774 487.193695,128.185364 487.180573,127.820198 
	C486.912018,120.369301 486.286957,112.882408 486.760223,105.468262 
	C487.177246,98.935768 490.903290,94.383430 497.909546,93.676605 
	C497.909546,74.729370 497.909546,56.154861 497.909546,37.342289 
	C491.239868,36.938229 484.811829,36.548809 477.481506,36.104725 
	C477.481506,40.850018 477.431152,45.584267 477.539825,50.314865 
	C477.554810,50.967995 478.212585,51.927868 478.817139,52.197327 
	C486.850464,55.777775 486.902466,63.119049 487.322357,70.222595 
	C487.448395,72.355286 487.031036,74.520096 486.210571,76.617676 
	C485.371460,73.785385 485.144928,71.007584 485.005371,68.225433 
	C484.693634,62.010471 481.905823,57.827835 476.873138,56.774483 
	C479.518311,59.770683 481.622162,63.011665 478.097015,65.890709 
	C476.802887,66.947609 473.049103,66.979507 471.919098,65.902802 
	C467.305725,61.507252 472.005920,58.688461 476.173035,55.172977 
	C472.142670,55.518093 469.907013,55.709530 467.671356,55.900963 
M497.094788,99.729218 
	C497.040131,99.231560 496.985474,98.733894 496.930847,98.236221 
	C496.485016,98.350777 496.039154,98.465332 495.593323,98.579895 
	C495.894928,99.004715 496.196564,99.429527 497.094788,99.729218 
z"/>
<path fill="#E6395F" opacity="1.000000" stroke="none" 
	d="
M164.703995,55.550255 
	C166.621216,54.105797 168.538437,52.661343 171.020294,50.791489 
	C171.020294,46.558323 171.020294,41.448322 171.020294,35.904716 
	C163.344070,34.566296 155.682312,33.230400 148.020554,31.894505 
	C148.035019,31.375620 148.049500,30.856735 148.063965,30.337852 
	C148.996567,30.127224 149.961670,29.646921 150.855896,29.754715 
	C153.987885,30.132267 157.097092,30.702526 160.211960,31.217674 
	C170.704376,32.952946 170.703888,32.955921 178.567200,26.439255 
	C177.777969,29.353258 177.294601,31.137987 176.627365,33.601593 
	C182.648972,33.601593 188.494278,33.601593 194.701309,33.601593 
	C194.827576,30.911612 194.962189,28.043774 195.096802,25.175934 
	C195.616074,25.145838 196.135345,25.115740 196.654617,25.085644 
	C196.960724,27.942469 197.266830,30.799295 197.615234,34.050697 
	C203.640244,34.050697 209.657303,34.050697 216.119034,34.050697 
	C215.126511,31.596849 214.334702,29.639242 213.062500,26.493984 
	C214.926636,27.454836 215.789078,27.605602 215.953964,28.028393 
	C218.450180,34.429443 223.406006,33.861027 228.681717,32.714272 
	C232.898254,31.797750 237.150436,31.042013 241.395004,30.259378 
	C242.883759,29.984873 244.396896,29.842709 246.049667,30.418941 
	C238.765213,34.865208 230.299377,34.626621 221.931641,36.537106 
	C221.931641,41.051846 221.864868,45.507099 221.993423,49.956707 
	C222.016449,50.754314 222.663620,51.768639 223.331558,52.276936 
	C230.851898,57.999825 230.868118,57.978504 230.167999,66.888908 
	C235.812393,66.192024 241.255203,66.336266 244.097473,72.451469 
	C245.960846,76.460503 245.486710,80.199234 242.309845,83.379410 
	C243.277924,73.469566 240.676483,69.998047 230.926620,69.066002 
	C227.948547,68.781311 228.093964,67.111946 227.953308,65.038902 
	C227.821518,63.096664 227.320633,61.179462 226.982193,59.251244 
	C226.484634,59.343456 225.987076,59.435669 225.489517,59.527882 
	C225.335693,60.144978 225.300247,60.826302 225.006561,61.367504 
	C223.997894,63.226269 223.252228,65.515015 221.689331,66.668030 
	C220.873093,67.270218 217.333527,66.099060 217.161362,65.279732 
	C216.726700,63.211220 216.883163,60.530891 217.916702,58.737831 
	C220.469177,54.309723 217.942200,53.982548 214.638458,53.855469 
	C216.036118,53.042564 217.433762,52.229664 219.013123,51.311077 
	C219.013123,46.844242 219.013123,42.212933 219.013123,37.278297 
	C211.859039,37.278297 204.840485,37.278297 197.231781,37.278297 
	C197.231781,42.646301 197.231781,47.591583 197.231781,52.536869 
	C197.231781,64.024437 197.393234,75.515427 197.149948,86.997841 
	C197.056534,91.406822 197.409531,95.180573 201.611450,97.645241 
	C200.014664,98.141594 198.673111,98.299484 196.522537,98.552574 
	C200.038483,102.211395 201.623260,105.538811 197.098831,108.056984 
	C195.708649,108.830727 192.431427,108.537041 191.537018,107.465027 
	C188.169647,103.429001 190.673843,100.699310 194.417053,98.230049 
	C191.723404,99.131264 189.193512,100.335213 187.991547,102.336647 
	C182.943832,110.741852 184.833786,119.852264 185.990128,128.833359 
	C185.150742,128.002228 183.640427,127.217010 183.579926,126.332588 
	C183.160416,120.201691 182.728592,114.041176 182.904282,107.907463 
	C183.143158,99.567734 186.655899,95.513382 194.683441,93.405258 
	C194.683441,74.879250 194.683441,56.307507 194.683441,37.358044 
	C187.830490,36.939594 181.142822,36.531239 174.190414,36.106716 
	C174.190414,41.338482 174.190414,46.283802 174.190414,51.296055 
	C183.595383,57.477436 187.783401,77.403267 181.395691,87.353447 
	C181.334244,81.103615 181.877899,75.343330 181.935867,69.578163 
	C181.997543,63.444969 178.433365,58.034679 175.612823,57.413635 
	C175.072388,60.384186 174.745514,63.441498 173.736511,66.254097 
	C173.598434,66.638992 169.307953,66.523384 168.239288,65.401672 
	C164.899765,61.896347 168.265198,59.339481 171.140045,56.517796 
	C168.491531,56.119640 166.597763,55.834946 164.703995,55.550255 
M222.799469,56.393314 
	C222.795349,56.786060 222.791229,57.178810 222.787109,57.571556 
	C222.950073,57.573174 223.254684,57.585670 223.255524,57.574837 
	C223.285538,57.184071 223.287247,56.791126 222.799469,56.393314 
z"/>
<path fill="#E52E56" opacity="1.000000" stroke="none" 
	d="
M83.918915,124.183693 
	C80.794060,116.332344 80.928078,108.333000 84.093224,100.702477 
	C85.095917,98.285187 88.552269,96.930740 90.761688,94.951416 
	C92.011452,93.831818 93.961319,92.442169 93.976700,91.154823 
	C94.189217,73.368080 94.120300,55.577969 94.120300,37.504147 
	C87.187347,37.032078 80.487686,36.575893 73.470810,36.098110 
	C73.470810,41.329762 73.470810,46.431919 73.470810,51.729721 
	C80.754860,54.518848 83.276360,60.422546 83.124817,67.884232 
	C83.016747,73.204727 82.939659,78.531181 82.588676,83.837769 
	C82.498436,85.202240 81.425850,86.501732 80.489021,87.358002 
	C80.305161,79.663765 80.810806,72.422325 80.420868,65.229439 
	C80.205055,61.248466 77.755821,57.985943 72.867920,55.945545 
	C74.311340,59.757771 78.190216,62.594147 73.881294,65.424675 
	C72.388954,66.404991 69.207504,67.038734 68.216660,66.184578 
	C63.072472,61.750069 67.998260,58.811283 71.304367,55.749817 
	C70.949211,55.514210 70.594055,55.278599 70.238899,55.042988 
	C67.765594,55.682343 65.292282,56.321697 62.818977,56.961052 
	C65.125824,54.987549 67.432671,53.014042 70.558060,50.340275 
	C70.558060,46.452095 70.558060,41.222080 70.558060,35.846840 
	C62.708447,34.491413 55.026741,33.164974 47.345039,31.838539 
	C47.440498,31.123726 47.535961,30.408913 47.631420,29.694098 
	C51.689785,30.232618 55.750660,30.753157 59.805378,31.317860 
	C61.613457,31.569672 63.451771,31.756393 65.202156,32.240799 
	C69.675842,33.478870 73.346657,33.010239 75.395157,28.183117 
	C75.592957,27.717012 76.347870,27.487329 77.844925,27.667261 
	C77.197456,29.445303 76.549988,31.223343 75.658615,33.671173 
	C81.782608,33.671173 87.639641,33.671173 93.803223,33.671173 
	C94.045868,31.045162 94.317329,28.107388 94.588791,25.169613 
	C95.040642,25.197689 95.492500,25.225767 95.944351,25.253845 
	C95.944351,28.209852 95.944351,31.165857 95.944351,34.544861 
	C102.803108,34.544861 109.080772,34.544861 115.699074,34.544861 
	C115.171249,33.126160 114.633080,31.679630 113.859352,29.599964 
	C115.065857,29.992979 116.200844,30.007099 116.513123,30.521076 
	C118.863686,34.389774 121.937630,34.143776 125.844498,33.103718 
	C131.444916,31.612812 137.247528,30.868742 142.979446,29.898285 
	C143.822983,29.755468 144.752655,30.121454 145.664597,30.813667 
	C130.032806,36.456306 113.864693,37.970177 96.765060,36.982479 
	C96.765060,39.514099 96.765068,41.446228 96.765068,43.378361 
	C96.765083,58.859158 96.733574,74.340103 96.808891,89.820534 
	C96.817383,91.564430 97.429230,93.305405 97.867233,95.780426 
	C97.879776,98.210922 97.511932,99.948845 97.752983,101.597755 
	C98.187408,104.569481 98.530975,107.811592 95.057381,108.567627 
	C93.468224,108.913506 89.723892,106.670280 89.750046,105.674637 
	C89.813782,103.247536 91.508354,100.863274 92.593521,98.352371 
	C92.949242,98.409195 92.305031,98.106262 91.794273,98.256638 
	C88.013840,99.369606 84.630188,104.531792 84.501236,109.072716 
	C84.358154,114.111160 84.117241,119.146820 83.918915,124.183693 
z"/>
<path fill="#E63A60" opacity="1.000000" stroke="none" 
	d="
M295.944275,37.013954 
	C289.314178,37.013954 282.684082,37.013954 275.644775,37.013954 
	C275.644775,41.319218 275.644775,46.392124 275.644775,51.670742 
	C286.457947,55.982487 285.118225,65.527473 284.225220,74.591423 
	C283.365723,72.278107 283.164368,69.990410 282.993713,67.700424 
	C282.549103,61.734722 279.669220,57.653446 274.924347,56.871933 
	C277.081696,59.669056 280.053497,62.562683 275.950623,65.316185 
	C274.413910,66.347511 270.925385,66.854156 269.936768,65.911491 
	C265.323608,61.512745 269.967896,58.690769 273.413940,55.831333 
	C273.032623,55.566601 272.651276,55.301868 272.269958,55.037136 
	C269.793854,55.677734 267.317749,56.318333 264.841644,56.958931 
	C267.284302,54.917675 269.726990,52.876415 272.702087,50.390209 
	C272.702087,46.341152 272.702087,41.371365 272.702087,35.972046 
	C264.901306,34.594242 257.125397,33.220833 249.349503,31.847420 
	C249.469833,31.105402 249.590164,30.363384 249.710495,29.621367 
	C252.773651,30.065121 255.835495,30.518229 258.900635,30.947815 
	C260.052460,31.109245 261.227753,31.135912 262.365204,31.361155 
	C268.555359,32.586937 275.043732,35.150925 278.790558,26.109318 
	C279.162201,26.619173 279.533844,27.129026 279.905487,27.638880 
	C279.299927,29.422073 278.694336,31.205265 277.865234,33.646637 
	C283.879333,33.646637 289.604309,33.646637 295.830353,33.646637 
	C296.026794,31.120859 296.259308,28.131275 296.491821,25.141689 
	C297.075592,25.080648 297.659363,25.019608 298.243164,24.958567 
	C298.572906,27.936634 298.902679,30.914701 299.261139,34.151978 
	C305.299347,34.151978 311.218842,34.151978 317.554749,34.151978 
	C316.592712,31.724501 315.787750,29.693439 314.637970,26.792183 
	C316.265350,27.403919 316.974976,27.456791 317.088318,27.744532 
	C319.923218,34.941254 325.536194,33.707642 331.198151,32.502914 
	C335.094238,31.673923 339.011444,30.940302 342.929871,30.222200 
	C344.439880,29.945471 345.979370,29.829603 347.640259,30.397589 
	C340.341064,34.886547 331.859558,34.649712 323.421509,36.523319 
	C323.421509,41.049046 323.319885,45.501549 323.506805,49.941910 
	C323.544403,50.835194 324.486237,52.061012 325.335968,52.489986 
	C331.296082,55.498798 333.178741,60.218479 331.240509,66.941277 
	C336.807251,66.346550 342.017914,66.140556 345.089355,71.566933 
	C347.251221,75.386337 347.212494,79.162361 344.351990,82.576012 
	C343.920197,71.595406 343.499756,71.187462 329.649323,68.371216 
	C327.436859,57.830189 327.436859,57.830189 324.404266,56.652130 
	C324.515625,57.185638 324.458496,57.771126 324.723633,58.047783 
	C327.031616,60.455898 328.478485,63.253002 325.443512,65.712166 
	C324.215454,66.707199 321.235504,66.714172 319.701019,65.919327 
	C316.207062,64.109474 316.920074,61.365902 318.942871,58.457985 
	C321.545502,54.716560 319.195679,53.888287 315.861359,53.958786 
	C324.282043,50.408398 319.053101,43.165680 320.918457,37.142624 
	C313.550446,37.142624 306.814453,37.142624 299.219482,37.092491 
	C297.555084,37.032894 296.749664,37.023426 295.944275,37.013954 
z"/>
<path fill="#E52D55" opacity="1.000000" stroke="none" 
	d="
M451.584473,30.498554 
	C451.906036,30.517891 451.902435,30.917643 451.934631,31.112385 
	C445.005554,32.772617 438.005310,34.081333 431.105194,35.793415 
	C428.860138,36.350460 426.876495,37.961040 424.369354,38.806961 
	C423.376221,38.035728 422.793396,37.131737 422.196838,37.122593 
	C415.592133,37.021336 408.985291,37.058872 401.848480,37.058872 
	C401.848480,43.098480 401.848480,48.537399 401.848480,53.976315 
	C401.848480,65.948212 401.750244,77.921669 401.941010,89.890526 
	C401.974518,91.994057 403.218872,94.078300 403.768677,96.672485 
	C403.584595,98.838249 403.070038,100.664886 403.581085,102.135033 
	C404.760529,105.528175 402.852448,107.581718 400.436371,108.414711 
	C399.081268,108.881935 395.451874,107.114250 395.437653,106.307823 
	C395.391235,103.676567 396.535614,101.024307 397.146118,98.672073 
	C393.343567,98.836395 388.531342,105.272713 389.051514,110.699623 
	C389.324890,113.551956 388.945221,116.466881 388.860443,119.353546 
	C383.565308,111.613686 388.016754,97.543686 396.470673,94.874382 
	C397.571350,94.526848 399.068085,92.988480 399.076752,91.990341 
	C399.234253,73.872864 399.191620,55.753643 399.191620,37.456329 
	C392.210938,37.015961 385.648376,36.601967 378.269104,36.136456 
	C378.269104,40.895924 378.221252,45.628811 378.325348,50.358360 
	C378.339508,51.000980 378.979004,51.991173 379.556946,52.205360 
	C387.111664,55.005142 387.362213,61.775734 388.121887,68.120949 
	C388.453613,70.891510 387.971954,73.759453 387.194458,76.563507 
	C386.349884,73.590378 386.196686,70.635033 385.985626,67.683830 
	C385.559692,61.727306 382.652039,57.642208 377.933075,56.881546 
	C380.086395,59.673492 383.047852,62.565296 378.955719,65.318108 
	C377.421722,66.350037 373.935577,66.858063 372.946930,65.916702 
	C368.323181,61.514206 372.963226,58.690136 377.208954,55.160660 
	C373.152924,55.525105 370.911011,55.726547 368.669128,55.927986 
	C370.884216,54.310757 373.099304,52.693531 375.730652,50.772415 
	C375.730652,46.363655 375.730652,41.231606 375.730652,35.859081 
	C367.955017,34.519661 360.279663,33.197517 352.604340,31.875372 
	C352.642059,31.337271 352.679810,30.799168 352.717529,30.261066 
	C353.687378,30.112041 354.684570,29.740173 355.622009,29.855228 
	C358.589874,30.219477 361.537262,30.754766 364.489227,31.243862 
	C370.896118,32.305389 377.827118,35.826122 381.910950,26.096991 
	C382.263611,26.629116 382.616241,27.161242 382.968872,27.693367 
	C382.282471,29.478502 381.596039,31.263639 380.654572,33.712112 
	C386.908173,33.712112 392.761871,33.712112 399.013336,33.712112 
	C399.152802,31.068844 399.303284,28.216593 399.453796,25.364344 
	C399.885376,25.358021 400.316986,25.351698 400.748596,25.345375 
	C400.920227,28.250330 401.091888,31.155285 401.290070,34.508892 
	C407.746735,34.508892 414.011444,34.508892 420.514771,34.508892 
	C420.306671,33.074715 420.066376,31.418493 419.826080,29.762272 
	C423.515289,35.947235 428.801117,33.633842 433.770477,32.688221 
	C437.849579,31.912012 441.900238,30.964720 446.000000,30.328588 
	C447.705444,30.063972 449.505737,30.410563 451.584473,30.498554 
z"/>
<path fill="#EF405E" opacity="1.000000" stroke="none" 
	d="
M420.967865,52.849297 
	C421.717468,52.513512 422.467072,52.177715 423.569824,52.225819 
	C423.940613,54.744682 423.958252,56.879654 423.782532,59.287731 
	C423.056427,60.704178 422.523651,61.847511 421.761047,63.163006 
	C422.017975,63.893291 422.504639,64.451416 422.995667,65.004776 
	C423.000000,65.000000 422.990753,65.008911 423.051270,65.356049 
	C424.803528,67.660553 426.166656,67.787720 427.003906,65.001846 
	C427.000580,64.999779 427.001648,65.007141 427.388611,64.999237 
	C431.694885,63.315750 430.116089,61.110336 428.342010,58.916138 
	C427.566376,57.956787 426.723694,57.051643 425.911469,56.121872 
	C426.336823,55.811005 426.762207,55.500137 427.187561,55.189266 
	C431.014191,57.635262 432.981293,61.217369 432.711731,66.248558 
	C431.880341,70.703140 435.158386,68.816917 436.711151,68.914352 
	C442.251312,69.261986 446.352936,72.192841 446.922760,76.869919 
	C447.178833,78.971756 447.040436,81.121651 447.080994,83.249741 
	C443.793335,84.936226 440.615692,87.744400 437.195526,88.079842 
	C429.663666,88.818558 422.009399,88.309204 413.632141,88.309204 
	C413.632141,79.041924 413.256409,70.629074 413.843994,62.284058 
	C414.039276,59.510513 416.707672,56.911121 418.891144,54.087936 
	C420.013855,53.578934 420.490845,53.214115 420.967865,52.849297 
z"/>
<path fill="#EF405E" opacity="1.000000" stroke="none" 
	d="
M129.221207,65.111488 
	C129.200302,65.524467 129.179398,65.937439 128.774048,66.723518 
	C128.454453,68.928978 128.454453,68.928970 131.565842,68.999977 
	C137.227188,69.129158 141.296280,72.085999 141.906250,76.752579 
	C142.180725,78.852364 142.010025,81.010338 142.041321,83.141907 
	C138.277847,84.923470 134.642929,87.782883 130.722717,88.250420 
	C123.698639,89.088142 116.502899,88.486588 107.913788,88.486588 
	C107.913788,80.048233 107.345222,72.563530 108.148117,65.228958 
	C108.563942,61.430405 111.409767,57.897861 113.815063,54.103004 
	C114.967636,53.577866 115.462898,53.194862 115.958160,52.811859 
	C116.748192,52.439365 117.538231,52.066872 118.649208,52.033756 
	C118.139435,54.667664 117.459999,57.032574 116.434723,59.236599 
	C115.443413,61.367611 113.882965,63.351925 116.995438,65.003395 
	C116.999664,65.000526 116.996681,65.008179 117.161629,65.321320 
	C119.133705,67.199318 120.878754,68.315727 122.115417,64.773430 
	C122.416832,64.294022 122.671570,64.112045 123.340958,63.952862 
	C123.494553,62.156235 123.486038,60.367691 123.022339,58.706177 
	C122.736412,57.681625 121.756348,56.850800 121.087921,55.933002 
	C121.746178,55.351517 122.404427,54.770031 123.062675,54.188549 
	C123.989059,55.696140 124.966805,57.175022 125.829308,58.718315 
	C127.005936,60.823669 128.094742,62.978100 129.221207,65.111488 
z"/>
<path fill="#EF415E" opacity="1.000000" stroke="none" 
	d="
M164.716339,55.581940 
	C166.597763,55.834946 168.491531,56.119640 171.140045,56.517796 
	C168.265198,59.339481 164.899765,61.896347 168.239288,65.401672 
	C169.307953,66.523384 173.598434,66.638992 173.736511,66.254097 
	C174.745514,63.441498 175.072388,60.384186 175.612823,57.413635 
	C178.433365,58.034679 181.997543,63.444969 181.935867,69.578163 
	C181.877899,75.343330 181.334244,81.103615 181.007233,87.291702 
	C173.893509,87.919609 166.761429,88.470543 159.667648,88.156372 
	C156.737244,88.026596 153.544678,86.528107 151.082291,84.787735 
	C147.165054,82.019073 146.092010,77.800697 147.890610,73.267967 
	C149.561554,69.056931 152.616959,66.545052 157.443283,66.776756 
	C158.893814,66.846390 160.350525,66.787521 161.539993,66.787521 
	C162.009369,63.491322 162.442459,60.450016 163.478989,57.076344 
	C164.310638,56.385906 164.538849,56.027832 164.767059,55.669754 
	C164.767059,55.669754 164.728668,55.613625 164.716339,55.581940 
z"/>
<path fill="#EF405E" opacity="1.000000" stroke="none" 
	d="
M368.377716,56.122189 
	C370.911011,55.726547 373.152924,55.525105 377.208954,55.160660 
	C372.963226,58.690136 368.323181,61.514206 372.946930,65.916702 
	C373.935577,66.858063 377.421722,66.350037 378.955719,65.318108 
	C383.047852,62.565296 380.086395,59.673492 377.933075,56.881546 
	C382.652039,57.642208 385.559692,61.727306 385.985626,67.683830 
	C386.196686,70.635033 386.349884,73.590378 386.849854,76.823105 
	C387.123993,77.842766 387.077515,78.583160 386.691284,79.957977 
	C386.583649,82.737091 386.815765,84.881783 387.047882,87.026482 
	C378.099274,87.182976 369.052185,88.207947 360.234619,87.208427 
	C353.724121,86.470428 350.803589,80.473679 351.998749,74.547104 
	C353.068451,69.242546 357.244080,66.602524 364.082520,66.892899 
	C364.884888,66.926964 365.689911,66.897514 365.626312,66.897514 
	C366.509125,63.100212 367.297729,59.708302 368.377716,56.122189 
z"/>
<path fill="#EF405E" opacity="1.000000" stroke="none" 
	d="
M467.384613,56.103592 
	C469.907013,55.709530 472.142670,55.518093 476.173035,55.172977 
	C472.005920,58.688461 467.305725,61.507252 471.919098,65.902802 
	C473.049103,66.979507 476.802887,66.947609 478.097015,65.890709 
	C481.622162,63.011665 479.518311,59.770683 476.873138,56.774483 
	C481.905823,57.827835 484.693634,62.010471 485.005371,68.225433 
	C485.144928,71.007584 485.371460,73.785385 485.886475,76.839493 
	C486.151642,78.159760 486.088806,79.205688 485.698242,80.912476 
	C485.246429,83.628227 485.122284,85.683136 484.998138,87.738037 
	C478.045074,87.981438 471.087006,88.507355 464.140442,88.384521 
	C457.864685,88.273552 453.032532,85.359322 450.306519,78.681488 
	C449.999481,77.127777 449.996368,76.115685 449.993256,75.103600 
	C453.169708,68.628151 457.899536,65.017799 464.701813,67.012802 
	C465.573120,63.119499 466.335480,59.712860 467.384613,56.103592 
z"/>
<path fill="#EF415E" opacity="1.000000" stroke="none" 
	d="
M570.480103,55.482769 
	C572.393921,55.467407 574.323669,55.467407 576.632019,55.467407 
	C575.782471,58.941429 568.653198,61.007046 574.107056,65.383072 
	C575.442627,66.454697 579.539612,66.620583 579.660034,66.270943 
	C580.648865,63.398720 580.998108,60.306271 581.542908,57.272034 
	C585.954529,59.748104 587.743591,64.896393 587.892151,70.534386 
	C588.035278,75.966919 587.332703,81.421722 587.004028,87.302734 
	C581.037415,88.041222 575.057983,88.693878 569.103638,88.514008 
	C565.570435,88.407280 561.816345,87.539368 558.625732,86.031464 
	C553.688293,83.697990 551.901550,78.753746 553.336853,73.888802 
	C554.696106,69.281303 558.595459,66.697807 564.009583,66.803543 
	C565.145447,66.825729 566.282043,66.806755 567.443298,66.806755 
	C567.776855,63.700935 568.105530,60.640274 569.064819,57.254120 
	C569.950806,56.454933 570.206116,55.981239 570.461426,55.507553 
	C570.461487,55.507561 570.495911,55.498131 570.480103,55.482769 
z"/>
<path fill="#EF405E" opacity="1.000000" stroke="none" 
	d="
M264.548187,57.181927 
	C267.317749,56.318333 269.793854,55.677734 272.269958,55.037136 
	C272.651276,55.301868 273.032623,55.566601 273.413940,55.831333 
	C269.967896,58.690769 265.323608,61.512745 269.936768,65.911491 
	C270.925385,66.854156 274.413910,66.347511 275.950623,65.316185 
	C280.053497,62.562683 277.081696,59.669056 274.924347,56.871933 
	C279.669220,57.653446 282.549103,61.734722 282.993713,67.700424 
	C283.164368,69.990410 283.365723,72.278107 283.876343,74.837234 
	C284.142548,76.478401 284.085510,77.849182 283.700745,79.888214 
	C282.918304,82.934410 282.463654,85.312355 282.009003,87.690300 
	C274.749207,87.871117 267.458435,88.544449 260.238586,88.090210 
	C253.414551,87.660866 249.131699,83.185310 248.788788,77.749374 
	C248.374588,71.183258 252.652634,66.699249 259.258789,66.800903 
	C260.567169,66.821037 261.874268,66.927261 262.981079,66.983566 
	C263.421112,63.674248 263.837921,60.539585 264.548187,57.181927 
z"/>
<path fill="#EF405E" opacity="1.000000" stroke="none" 
	d="
M62.517250,57.174484 
	C65.292282,56.321697 67.765594,55.682343 70.238899,55.042988 
	C70.594055,55.278599 70.949211,55.514210 71.304367,55.749817 
	C67.998260,58.811283 63.072472,61.750069 68.216660,66.184578 
	C69.207504,67.038734 72.388954,66.404991 73.881294,65.424675 
	C78.190216,62.594147 74.311340,59.757771 72.867920,55.945545 
	C77.755821,57.985943 80.205055,61.248466 80.420868,65.229439 
	C80.810806,72.422325 80.305161,79.663765 80.106430,87.274277 
	C72.766136,87.855583 65.462975,88.538406 58.228325,88.097359 
	C51.397514,87.680939 47.066643,83.186317 46.735413,77.776176 
	C46.330246,71.158379 50.580357,66.696632 57.213791,66.801361 
	C58.524563,66.822060 59.833992,66.927887 60.928074,66.983482 
	C61.372944,63.667812 61.794235,60.527863 62.517250,57.174484 
z"/>
<path fill="#EF415F" opacity="1.000000" stroke="none" 
	d="
M214.318542,53.938530 
	C217.942200,53.982548 220.469177,54.309723 217.916702,58.737831 
	C216.883163,60.530891 216.726700,63.211220 217.161362,65.279732 
	C217.333527,66.099060 220.873093,67.270218 221.689331,66.668030 
	C223.252228,65.515015 223.997894,63.226269 225.006561,61.367504 
	C225.300247,60.826302 225.335693,60.144978 225.489517,59.527882 
	C225.987076,59.435669 226.484634,59.343456 226.982193,59.251244 
	C227.320633,61.179462 227.821518,63.096664 227.953308,65.038902 
	C228.093964,67.111946 227.948547,68.781311 230.926620,69.066002 
	C240.676483,69.998047 243.277924,73.469566 241.990295,83.546646 
	C237.931915,85.502312 233.982407,87.944923 229.805191,88.431084 
	C223.259277,89.192917 216.559555,88.633141 208.912842,88.633141 
	C208.912842,79.348892 208.458893,71.087608 209.145874,62.922318 
	C209.405106,59.841122 212.303375,56.981960 214.318542,53.938530 
z"/>
<path fill="#EF415F" opacity="1.000000" stroke="none" 
	d="
M12.280179,53.916725 
	C15.809183,54.010231 18.526468,54.214970 15.933080,58.722466 
	C14.897214,60.522873 14.736601,63.204964 15.165891,65.281372 
	C15.334103,66.094994 18.900177,67.266922 19.707920,66.661140 
	C21.268507,65.490753 21.999716,63.190155 23.006983,61.321552 
	C23.297701,60.782238 23.357073,60.118221 23.522505,59.511375 
	C24.022982,59.422749 24.523458,59.334122 25.023935,59.245495 
	C25.349625,61.197666 25.451090,63.225227 26.073839,65.077522 
	C26.549284,66.491692 27.500895,68.623390 28.555307,68.829956 
	C39.466011,70.967499 40.026348,71.541458 39.983528,83.464844 
	C36.938595,85.374878 33.982658,87.855896 30.847946,88.107246 
	C23.174185,88.722534 15.417870,88.308159 6.995455,88.308159 
	C6.995455,79.028549 6.577141,70.645767 7.223470,62.345905 
	C7.448192,59.460133 10.307181,56.779491 12.280179,53.916725 
z"/>
<path fill="#EF415E" opacity="1.000000" stroke="none" 
	d="
M83.724571,124.520729 
	C84.117241,119.146820 84.358154,114.111160 84.501236,109.072716 
	C84.630188,104.531792 88.013840,99.369606 91.794273,98.256638 
	C92.305031,98.106262 92.949242,98.409195 92.593521,98.352371 
	C91.508354,100.863274 89.813782,103.247536 89.750046,105.674637 
	C89.723892,106.670280 93.468224,108.913506 95.057381,108.567627 
	C98.530975,107.811592 98.187408,104.569481 97.752983,101.597755 
	C97.511932,99.948845 97.879776,98.210922 98.030762,96.164276 
	C103.755241,98.816376 104.090248,99.594452 103.496071,108.758743 
	C104.322174,108.674522 105.096657,108.601105 105.869835,108.515854 
	C111.756943,107.866768 116.068275,110.380180 117.600204,115.357048 
	C119.130333,120.328056 117.084534,125.355080 111.783806,127.680321 
	C108.686295,129.039078 105.074577,129.731781 101.677971,129.790848 
	C95.718758,129.894470 89.747070,129.280975 83.070381,128.930573 
	C83.235100,127.471642 83.382660,126.164703 83.724571,124.520729 
z"/>
<path fill="#EF405E" opacity="1.000000" stroke="none" 
	d="
M315.537567,54.065086 
	C319.195679,53.888287 321.545502,54.716560 318.942871,58.457985 
	C316.920074,61.365902 316.207062,64.109474 319.701019,65.919327 
	C321.235504,66.714172 324.215454,66.707199 325.443512,65.712166 
	C328.478485,63.253002 327.031616,60.455898 324.723633,58.047783 
	C324.458496,57.771126 324.515625,57.185638 324.404266,56.652130 
	C327.436859,57.830189 327.436859,57.830189 329.649323,68.371216 
	C343.499756,71.187462 343.920197,71.595406 344.050018,82.779480 
	C340.779724,84.925621 337.599518,87.741867 334.175659,88.078232 
	C326.635040,88.819031 318.971466,88.308258 309.951447,88.308258 
	C309.951447,80.000725 309.380707,72.508904 310.186554,65.168190 
	C310.604156,61.364468 313.459656,57.828384 315.537567,54.065086 
z"/>
<path fill="#EF405E" opacity="1.000000" stroke="none" 
	d="
M517.571655,54.077408 
	C519.476562,54.046333 521.056580,54.123371 523.850769,54.259613 
	C522.341431,56.473518 521.498535,57.743874 520.620972,58.989822 
	C519.028992,61.250000 518.107544,63.849895 521.052917,65.315804 
	C522.876404,66.223358 525.421936,65.680206 527.643311,65.788269 
	C527.632996,63.566460 527.736389,61.335148 527.551941,59.127899 
	C527.485535,58.334541 526.726074,57.599133 525.590454,55.646858 
	C530.636353,57.907360 531.041809,61.140732 531.005615,64.633186 
	C530.983215,66.797447 530.672241,68.787582 534.050476,69.070633 
	C544.375122,69.935684 545.906372,71.801941 546.065735,82.831482 
	C542.793884,84.964333 539.603638,87.750389 536.174500,88.084648 
	C528.644104,88.818687 520.992737,88.312263 511.955200,88.312263 
	C511.955200,80.160027 511.361237,72.836189 512.189209,65.676796 
	C512.648621,61.704525 515.482971,58.006927 517.571655,54.077408 
z"/>
<path fill="#EF415E" opacity="1.000000" stroke="none" 
	d="
M388.823242,119.758362 
	C388.945221,116.466881 389.324890,113.551956 389.051514,110.699623 
	C388.531342,105.272713 393.343567,98.836395 397.146118,98.672073 
	C396.535614,101.024307 395.391235,103.676567 395.437653,106.307823 
	C395.451874,107.114250 399.081268,108.881935 400.436371,108.414711 
	C402.852448,107.581718 404.760529,105.528175 403.581085,102.135033 
	C403.070038,100.664886 403.584595,98.838249 403.972565,97.014412 
	C410.430939,98.969917 408.733215,103.978981 408.379272,108.785614 
	C409.562347,108.647072 410.494659,108.523514 411.429993,108.430740 
	C416.752228,107.902893 420.872009,110.261429 422.543915,114.784828 
	C424.293793,119.519051 422.722076,124.621483 417.849182,127.103645 
	C414.718719,128.698242 410.956146,129.655304 407.442505,129.761658 
	C401.193329,129.950806 394.917999,129.277588 388.053131,128.935120 
	C388.314575,125.805794 388.550293,122.984482 388.823242,119.758362 
z"/>
<path fill="#EF415E" opacity="1.000000" stroke="none" 
	d="
M186.423782,128.931335 
	C184.833786,119.852264 182.943832,110.741852 187.991547,102.336647 
	C189.193512,100.335213 191.723404,99.131264 194.417053,98.230049 
	C190.673843,100.699310 188.169647,103.429001 191.537018,107.465027 
	C192.431427,108.537041 195.708649,108.830727 197.098831,108.056984 
	C201.623260,105.538811 200.038483,102.211395 196.522537,98.552574 
	C198.673111,98.299484 200.014664,98.141594 201.758820,97.970734 
	C203.106033,101.300514 204.050674,104.643265 205.166748,108.592674 
	C205.295609,108.578476 206.356644,108.427811 207.423004,108.349785 
	C212.704956,107.963348 216.580215,110.493744 218.153763,115.333275 
	C219.612411,119.819511 218.219696,124.675240 213.702927,126.856499 
	C210.091232,128.600677 205.839294,129.511566 201.806747,129.766220 
	C196.858887,130.078659 191.843582,129.323151 186.423782,128.931335 
z"/>
<path fill="#EF415F" opacity="1.000000" stroke="none" 
	d="
M608.586060,98.876724 
	C609.249390,101.992226 609.912720,105.107735 610.641663,108.531517 
	C610.746033,108.531517 611.368286,108.579414 611.981201,108.524139 
	C618.591003,107.928177 622.947754,110.641571 624.080811,116.078316 
	C625.283752,121.851013 622.015015,127.319687 615.634338,128.713303 
	C611.165039,129.689438 606.430298,129.604263 601.809021,129.678040 
	C598.500000,129.730896 595.182556,129.262131 591.434326,128.485016 
	C591.000671,123.135414 590.775940,118.312622 591.078918,113.523209 
	C591.294128,110.122086 591.784912,106.602974 592.966675,103.440681 
	C593.936340,100.845757 595.951538,98.466957 598.184021,98.165077 
	C597.693481,101.670662 596.985291,104.512260 597.178284,107.291260 
	C597.215332,107.824440 601.357605,109.079185 602.638184,108.335205 
	C606.891357,105.864212 604.784729,102.166840 603.171448,98.497169 
	C604.689209,98.263855 605.930176,98.073074 607.171143,97.882301 
	C607.171143,97.882301 607.075256,97.934074 607.225708,98.169708 
	C607.779419,98.562477 608.182739,98.719604 608.586060,98.876724 
z"/>
<path fill="#EF415F" opacity="1.000000" stroke="none" 
	d="
M304.925873,100.003067 
	C305.254974,102.704704 305.584076,105.406342 305.970306,108.576622 
	C306.591461,108.527542 307.822906,108.454391 309.049072,108.329117 
	C314.026886,107.820557 317.459198,110.170570 319.283356,114.532654 
	C321.130829,118.950432 320.387390,123.497627 316.239502,125.996956 
	C312.853668,128.037109 308.666565,129.409042 304.729248,129.713654 
	C299.163635,130.144180 293.500824,129.318665 287.439087,128.504471 
	C286.678467,124.048599 286.040314,120.112213 286.115570,116.189529 
	C286.218689,110.813034 286.280518,105.241142 291.335754,100.490204 
	C291.396240,105.229782 291.950043,109.499092 296.776611,108.797432 
	C304.351868,107.696159 299.504089,102.238991 299.148621,97.754204 
	C301.494354,98.667313 303.210114,99.335190 304.925873,100.003067 
z"/>
<path fill="#EF415F" opacity="1.000000" stroke="none" 
	d="
M489.433167,128.938232 
	C488.998871,122.524597 488.733002,116.181343 489.116760,109.877632 
	C489.299377,106.877838 490.718964,103.953339 492.385468,101.051010 
	C493.531982,105.233177 494.051422,110.026283 499.389618,108.765694 
	C505.989655,107.207115 501.750519,102.350990 501.023254,98.159111 
	C502.838959,98.456223 504.203247,98.679474 505.961609,98.903122 
	C506.966980,101.986656 507.578339,105.069801 508.279053,108.603546 
	C508.758514,108.558014 510.006531,108.435837 511.255249,108.321571 
	C516.226257,107.866692 519.667297,110.243912 521.414917,114.624092 
	C523.082520,118.803566 522.549072,123.326874 518.590576,125.729340 
	C515.080872,127.859398 510.774506,129.352615 506.696716,129.705902 
	C501.148560,130.186584 495.483337,129.316010 489.433167,128.938232 
z"/>
<path fill="#E8466A" opacity="1.000000" stroke="none" 
	d="
M304.898499,99.667130 
	C303.210114,99.335190 301.494354,98.667313 299.148621,97.754204 
	C299.504089,102.238991 304.351868,107.696159 296.776611,108.797432 
	C291.950043,109.499092 291.396240,105.229782 291.335754,100.490204 
	C286.280518,105.241142 286.218689,110.813034 286.115570,116.189529 
	C286.040314,120.112213 286.678467,124.048599 287.002625,128.430817 
	C286.360901,128.565094 285.155121,128.254181 285.151215,127.928787 
	C285.050232,119.551865 284.468170,111.112160 285.306274,102.818428 
	C285.803375,97.899399 289.506927,94.276688 295.912231,93.968124 
	C297.354156,93.991386 298.058838,94.013893 298.763550,94.036392 
	C300.799408,95.801331 302.835266,97.566261 304.898499,99.667130 
M294.490906,99.866615 
	C294.834778,99.475128 295.178650,99.083641 295.522522,98.692146 
	C294.977600,98.549477 294.432678,98.406807 293.887756,98.264137 
	C293.888397,98.756615 293.889069,99.249092 294.490906,99.866615 
z"/>
<path fill="#E63B60" opacity="1.000000" stroke="none" 
	d="
M607.083618,97.516830 
	C605.930176,98.073074 604.689209,98.263855 603.171448,98.497169 
	C604.784729,102.166840 606.891357,105.864212 602.638184,108.335205 
	C601.357605,109.079185 597.215332,107.824440 597.178284,107.291260 
	C596.985291,104.512260 597.693481,101.670662 598.184021,98.165077 
	C595.951538,98.466957 593.936340,100.845757 592.966675,103.440681 
	C591.784912,106.602974 591.294128,110.122086 591.078918,113.523209 
	C590.775940,118.312622 591.000671,123.135414 590.998596,128.402710 
	C590.414062,128.447937 589.336975,128.052536 589.321045,127.618118 
	C589.054932,120.385635 588.475769,113.123276 588.879150,105.918694 
	C589.316650,98.107506 594.375916,94.032730 602.347107,92.987663 
	C603.659790,94.163315 605.327881,95.657341 607.083618,97.516830 
z"/>
<path fill="#E21C47" opacity="1.000000" stroke="none" 
	d="
M298.759644,93.565369 
	C298.058838,94.013893 297.354156,93.991386 296.296753,93.978531 
	C296.011292,75.302528 296.078522,56.616886 296.045044,37.472599 
	C296.749664,37.023426 297.555084,37.032894 298.763489,37.042412 
	C299.029999,49.107037 298.868591,61.171410 298.766937,73.236282 
	C298.711182,79.855202 298.756195,86.474960 298.759644,93.565369 
z"/>
<path fill="#E52E56" opacity="1.000000" stroke="none" 
	d="
M116.991196,65.006264 
	C113.882965,63.351925 115.443413,61.367611 116.434723,59.236599 
	C117.459999,57.032574 118.139435,54.667664 118.958710,51.907242 
	C125.854324,51.804241 130.262894,57.189541 129.423615,64.798752 
	C128.094742,62.978100 127.005936,60.823669 125.829308,58.718315 
	C124.966805,57.175022 123.989059,55.696140 123.062675,54.188549 
	C122.404427,54.770031 121.746178,55.351517 121.087921,55.933002 
	C121.756348,56.850800 122.736412,57.681625 123.022339,58.706177 
	C123.486038,60.367691 123.494553,62.156235 123.344040,63.581909 
	C121.870125,61.962631 120.747406,60.652599 119.624695,59.342564 
	C118.746857,61.230461 117.869026,63.118362 116.991196,65.006264 
z"/>
<path fill="#E52D55" opacity="1.000000" stroke="none" 
	d="
M423.975891,59.014622 
	C423.958252,56.879654 423.940613,54.744682 423.877380,52.150749 
	C423.825165,50.884155 423.818542,50.076534 423.884888,48.872181 
	C424.091034,48.378693 424.246674,48.179176 424.353485,48.202579 
	C424.875793,48.316998 425.740967,48.364769 425.846375,48.662308 
	C427.958130,54.623051 438.092682,56.456612 433.986938,65.675247 
	C433.333282,66.001511 433.156525,66.001892 432.979767,66.002274 
	C432.981293,61.217369 431.014191,57.635262 427.187561,55.189266 
	C426.762207,55.500137 426.336823,55.811005 425.911469,56.121872 
	C426.723694,57.051643 427.566376,57.956787 428.342010,58.916138 
	C430.116089,61.110336 431.694885,63.315750 427.527527,64.679031 
	C428.962585,60.864071 426.166016,60.126507 423.975891,59.014622 
z"/>
<path fill="#E6355B" opacity="1.000000" stroke="none" 
	d="
M432.711731,66.248558 
	C433.156525,66.001892 433.333282,66.001511 433.775146,66.001205 
	C435.204529,66.274284 436.374359,66.803528 437.532043,66.778168 
	C444.379852,66.628174 446.831360,68.221275 449.689911,74.916702 
	C449.996368,76.115685 449.999481,77.127777 449.998016,78.519363 
	C449.212830,80.225243 448.432220,81.551605 447.366333,83.063858 
	C447.040436,81.121651 447.178833,78.971756 446.922760,76.869919 
	C446.352936,72.192841 442.251312,69.261986 436.711151,68.914352 
	C435.158386,68.816917 431.880341,70.703140 432.711731,66.248558 
z"/>
<path fill="#E52E56" opacity="1.000000" stroke="none" 
	d="
M142.359802,82.906128 
	C142.010025,81.010338 142.180725,78.852364 141.906250,76.752579 
	C141.296280,72.085999 137.227188,69.129158 131.565842,68.999977 
	C128.454453,68.928970 128.454453,68.928978 128.727295,67.032288 
	C130.057434,66.946159 131.053040,66.968071 132.041794,66.895828 
	C142.121918,66.159355 146.994492,73.379089 142.359802,82.906128 
z"/>
<path fill="#E63A60" opacity="1.000000" stroke="none" 
	d="
M282.342773,87.786484 
	C282.463654,85.312355 282.918304,82.934410 283.626892,80.293663 
	C283.479401,82.648132 283.078003,85.265396 282.342773,87.786484 
z"/>
<path fill="#E63C62" opacity="1.000000" stroke="none" 
	d="
M485.320129,87.778633 
	C485.122284,85.683136 485.246429,83.628227 485.630951,81.299919 
	C485.808228,83.290749 485.725159,85.554993 485.320129,87.778633 
z"/>
<path fill="#E52D55" opacity="1.000000" stroke="none" 
	d="
M387.092255,86.590088 
	C386.815765,84.881783 386.583649,82.737091 386.607910,80.319504 
	C386.955078,82.082306 387.045868,84.118004 387.092255,86.590088 
z"/>
<path fill="#E52D55" opacity="1.000000" stroke="none" 
	d="
M420.654663,52.876755 
	C420.490845,53.214115 420.013855,53.578934 419.216858,53.986755 
	C419.378387,53.654572 419.859924,53.279392 420.654663,52.876755 
z"/>
<path fill="#E63B60" opacity="1.000000" stroke="none" 
	d="
M570.202759,55.589684 
	C570.206116,55.981239 569.950806,56.454933 569.379150,56.974785 
	C569.356628,56.571236 569.650391,56.121532 570.202759,55.589684 
z"/>
<path fill="#E52E56" opacity="1.000000" stroke="none" 
	d="
M115.631500,52.844780 
	C115.462898,53.194862 114.967636,53.577866 114.136993,54.010147 
	C114.302689,53.665516 114.803764,53.271606 115.631500,52.844780 
z"/>
<path fill="#E63B60" opacity="1.000000" stroke="none" 
	d="
M608.416443,98.598297 
	C608.182739,98.719604 607.779419,98.562477 607.212891,98.116760 
	C607.448730,97.992065 607.847778,98.155968 608.416443,98.598297 
z"/>
<path fill="#E6395F" opacity="1.000000" stroke="none" 
	d="
M164.455139,55.751419 
	C164.538849,56.027832 164.310638,56.385906 163.754059,56.816010 
	C163.664871,56.536388 163.904037,56.184734 164.455139,55.751419 
z"/>
<path fill="#EF415F" opacity="1.000000" stroke="none" 
	d="
M21.390923,57.464504 
	C20.942276,57.348640 20.667248,57.066086 20.413483,56.765579 
	C20.406963,56.757858 20.633541,56.553295 20.751408,56.440533 
	C21.023380,56.725510 21.295355,57.010483 21.390923,57.464504 
z"/>
<path fill="#EF415F" opacity="1.000000" stroke="none" 
	d="
M496.796478,99.791779 
	C496.196564,99.429527 495.894928,99.004715 495.593323,98.579895 
	C496.039154,98.465332 496.485016,98.350777 496.930847,98.236221 
	C496.985474,98.733894 497.040131,99.231560 496.796478,99.791779 
z"/>
<path fill="#EF415F" opacity="1.000000" stroke="none" 
	d="
M223.046173,56.395901 
	C223.287247,56.791126 223.285538,57.184071 223.255524,57.574837 
	C223.254684,57.585670 222.950073,57.573174 222.787109,57.571556 
	C222.791229,57.178810 222.795349,56.786060 223.046173,56.395901 
z"/>
<path fill="#E6355B" opacity="1.000000" stroke="none" 
	d="
M423.782532,59.287731 
	C426.166016,60.126507 428.962585,60.864071 427.140564,64.686935 
	C427.001648,65.007141 427.000580,64.999779 426.602234,65.004929 
	C425.132812,65.009697 424.061798,65.009300 422.990753,65.008911 
	C422.990753,65.008911 423.000000,65.000000 422.977539,64.704483 
	C422.633698,63.936256 422.312286,63.463554 421.990845,62.990849 
	C422.523651,61.847511 423.056427,60.704178 423.782532,59.287731 
z"/>
<path fill="#E52D55" opacity="1.000000" stroke="none" 
	d="
M423.051270,65.356049 
	C424.061798,65.009300 425.132812,65.009697 426.605560,65.006996 
	C426.166656,67.787720 424.803528,67.660553 423.051270,65.356049 
z"/>
<path fill="#E52D55" opacity="1.000000" stroke="none" 
	d="
M421.761078,63.163006 
	C422.312286,63.463554 422.633698,63.936256 422.973206,64.709251 
	C422.504639,64.451416 422.017975,63.893291 421.761078,63.163006 
z"/>
<path fill="#E6375D" opacity="1.000000" stroke="none" 
	d="
M116.995430,65.003395 
	C117.869026,63.118362 118.746857,61.230461 119.624695,59.342564 
	C120.747406,60.652599 121.870125,61.962631 122.989761,63.643620 
	C122.671570,64.112045 122.416832,64.294022 121.697586,64.782440 
	C119.780693,65.005638 118.388687,65.006912 116.996681,65.008179 
	C116.996681,65.008179 116.999664,65.000526 116.995430,65.003395 
z"/>
<path fill="#E52E56" opacity="1.000000" stroke="none" 
	d="
M117.161629,65.321320 
	C118.388687,65.006912 119.780693,65.005638 121.590538,64.995361 
	C120.878754,68.315727 119.133705,67.199318 117.161629,65.321320 
z"/>
<path fill="#EF415F" opacity="1.000000" stroke="none" 
	d="
M294.190308,99.804092 
	C293.889069,99.249092 293.888397,98.756615 293.887756,98.264137 
	C294.432678,98.406807 294.977600,98.549477 295.522522,98.692154 
	C295.178650,99.083641 294.834778,99.475128 294.190308,99.804092 
z"/>
</svg>